<svg version="1.1" xmlns="http://www.w3.org/2000/svg" xmlns:xlink="http://www.w3.org/1999/xlink" width="96" height="96" viewBox="0,0,96,96"><g transform="translate(-192,-132)"><g data-paper-data="{&quot;isPaintingLayer&quot;:true}" fill-rule="nonzero" stroke-linecap="butt" stroke-linejoin="miter" stroke-miterlimit="10" stroke-dasharray="" stroke-dashoffset="0" style="mix-blend-mode: normal"><g><path d="M192,180c0,-26.50967 21.49033,-48 48,-48c26.50967,0 48,21.49033 48,48c0,26.50967 -21.49033,48 -48,48c-26.50967,0 -48,-21.49033 -48,-48z" fill="#000000" stroke="#ffffff" stroke-width="0"/><path d="M220,163.8125c0,-2.76143 2.23857,-5 5,-5c2.76143,0 5,2.23857 5,5c0,2.76143 -2.23857,5 -5,5c-2.76143,0 -5,-2.23857 -5,-5z" fill="#ffffff" stroke="none" stroke-width="0.5"/><path d="M257,165.8125c0,-2.76143 2.23858,-5 5,-5c2.76142,0 5,2.23857 5,5c0,2.76143 -2.23858,5 -5,5c-2.76142,0 -5,-2.23857 -5,-5z" fill="#ffffff" stroke="none" stroke-width="0.5"/><path d="M260.48352,188.09906c-0.28656,2.48352 -2.77008,3.08768 -2.77008,3.08768l-0.1806,-0.00253c-8.38417,2.79472 -20.87136,1.8253 -27.3006,-4.60395c0,0 -1.76776,-1.76776 0,-3.53553c1.76776,-1.76776 3.53553,0 3.53553,0c5.12618,5.12618 14.74384,5.62866 21.44167,3.39605l3.07713,-0.96336c0,0 2.48352,0.13811 2.19696,2.62163z" fill="#ffffff" stroke="none" stroke-width="0.5"/></g></g></g></svg>