<svg version="1.1" xmlns="http://www.w3.org/2000/svg" xmlns:xlink="http://www.w3.org/1999/xlink" width="432.47788" height="143.70908" viewBox="0,0,432.47788,143.70908"><g transform="translate(-25.08831,-107.64361)"><g data-paper-data="{&quot;isPaintingLayer&quot;:true}" fill-rule="nonzero" stroke-linejoin="miter" stroke-miterlimit="10" stroke-dasharray="" stroke-dashoffset="0" style="mix-blend-mode: normal"><path d="M30.20291,112.07782l346.26417,-3.43049l78.44463,68.1791l-421.18659,2.82825z" fill="#ffffff" stroke="#000000" stroke-width="2" stroke-linecap="round"/><path d="M63.50937,168.34167v-30.4298h38.03735v30.4298z" fill="#00fffc" stroke="#000000" stroke-width="2" stroke-linecap="butt"/><path d="M130.35295,158.63924v-19.32638h28.25639v19.32638z" fill="#00fffc" stroke="#000000" stroke-width="2" stroke-linecap="butt"/><path d="M213.41968,155.9157v-18.50147h25.53283v18.50147z" fill="#00fffc" stroke="#000000" stroke-width="2" stroke-linecap="butt"/><path d="M280.05376,156.70138v-25.15316h32.97011v25.15316z" fill="#00fffc" stroke="#000000" stroke-width="2" stroke-linecap="butt"/><path d="M339.02799,158.74038v-30.70477h34.6853v30.70477z" fill="#00fffc" stroke="#000000" stroke-width="2" stroke-linecap="butt"/><path d="M25.08832,251.3527" fill="none" stroke="#000000" stroke-width="2" stroke-linecap="round"/><path d="" fill="none" stroke="#000000" stroke-width="2" stroke-linecap="round"/><path d="M30.06833,149.96351h29l1,10h-28z" fill="#0064ff" stroke="#000000" stroke-width="2" stroke-linecap="round"/><path d="M105.06833,151.96351v-7h25v7z" fill="#0064ff" stroke="#000000" stroke-width="2" stroke-linecap="butt"/><path d="M160.06832,151.96351v-7h52v7z" fill="#0064ff" stroke="#000000" stroke-width="2" stroke-linecap="butt"/><path d="M241.06833,147.96351v-8h40v8z" fill="#0064ff" stroke="#000000" stroke-width="2" stroke-linecap="butt"/><path d="M309.06833,149.96351v-8h28v8z" fill="#0064ff" stroke="#000000" stroke-width="2" stroke-linecap="butt"/><path d="M381.31833,131.96351c0,-2.07107 1.67893,-3.75 3.75,-3.75c2.07107,0 3.75,1.67893 3.75,3.75c0,2.07107 -1.67893,3.75 -3.75,3.75c-2.07107,0 -3.75,-1.67893 -3.75,-3.75z" fill="#000000" stroke="none" stroke-width="0.5" stroke-linecap="butt"/><path d="M403.06833,157.96351l-20,2" fill="none" stroke="#000000" stroke-width="2" stroke-linecap="round"/><path d="M31.06833,122.96351l353,-6" fill="none" stroke="#000000" stroke-width="2" stroke-linecap="round"/><path d="M438.06833,164.96351l-408,7" fill="none" stroke="#000000" stroke-width="2" stroke-linecap="round"/><path d="M238.375,153.54964l15.9817,-1.73714c0,0 -7.42971,6.7395 -9.15531,9.29816c-1.62706,2.41254 -0.9201,5.64125 -0.9201,5.64125" fill="none" stroke="#000000" stroke-width="2" stroke-linecap="round"/><path d="M260.95783,152.85478l-0.69486,14.93941" fill="none" stroke="#000000" stroke-width="2" stroke-linecap="round"/><path d="M271.38068,153.55902c-2.19727,0.29673 -3.47428,3.43378 -3.47428,6.89709c0,3.46331 0.76093,8.74147 3.47428,8.37504c2.71336,-0.36643 3.82171,-4.91598 3.82171,-9.36034c0,-4.44436 -1.62444,-6.20852 -3.82171,-5.91179z" fill="none" stroke="#000000" stroke-width="2" stroke-linecap="round"/></g></g></svg>