<svg version="1.1" xmlns="http://www.w3.org/2000/svg" xmlns:xlink="http://www.w3.org/1999/xlink" width="311.61331" height="161.03008" viewBox="0,0,311.61331,161.03008"><g transform="translate(-82.8867,-118.3125)"><g data-paper-data="{&quot;isPaintingLayer&quot;:true}" fill-rule="nonzero" stroke-linejoin="miter" stroke-miterlimit="10" stroke-dasharray="" stroke-dashoffset="0" style="mix-blend-mode: normal"><path d="M317.00001,170.8125l-33,38" data-paper-data="{&quot;origPos&quot;:null}" fill="none" stroke="#000000" stroke-width="5" stroke-linecap="round"/><path d="M363.00001,168.8125l-42,43" data-paper-data="{&quot;origPos&quot;:null}" fill="none" stroke="#000000" stroke-width="5" stroke-linecap="round"/><path d="M343.00001,147.3125c0,12.97869 -9.40202,23.5 -21,23.5c-11.59798,0 -21,-10.52131 -21,-23.5c0,-12.97869 9.40202,-23.5 21,-23.5c11.59798,0 21,10.52131 21,23.5z" data-paper-data="{&quot;origPos&quot;:null}" fill="#ffffff" stroke="#000000" stroke-width="5" stroke-linecap="butt"/><path d="M392.00001,144.3125c0,12.97869 -8.50659,23.5 -19,23.5c-10.49341,0 -19,-10.52131 -19,-23.5c0,-12.97869 8.50659,-23.5 19,-23.5c10.49341,0 19,10.52131 19,23.5z" data-paper-data="{&quot;origPos&quot;:null}" fill="#ffffff" stroke="#000000" stroke-width="5" stroke-linecap="butt"/><path d="M316.00001,144.8125c0,-2.76143 2.23858,-5 5,-5c2.76142,0 5,2.23857 5,5c0,2.76143 -2.23858,5 -5,5c-2.76142,0 -5,-2.23857 -5,-5z" data-paper-data="{&quot;origPos&quot;:null}" fill="#000000" stroke="none" stroke-width="0.5" stroke-linecap="butt"/><path d="M371.00001,140.8125c0,-2.76143 2.23858,-5 5,-5c2.76142,0 5,2.23857 5,5c0,2.76143 -2.23858,5 -5,5c-2.76142,0 -5,-2.23857 -5,-5z" data-paper-data="{&quot;origPos&quot;:null}" fill="#000000" stroke="none" stroke-width="0.5" stroke-linecap="butt"/><path d="M271.20456,186.3125c0,35.07008 -25.78942,63.5 -57.60227,63.5c-31.81285,0 -57.60227,-28.42992 -57.60227,-63.5c0,-35.07008 25.78942,-63.5 57.60227,-63.5c31.81285,0 57.60227,28.42992 57.60227,63.5z" data-paper-data="{&quot;origPos&quot;:null}" fill="#ffbb70" stroke="#000000" stroke-width="5" stroke-linecap="butt"/><path d="M207.78361,179.16282c0.40798,-2.35234 1.75194,-5.88585 1.75194,-5.88585l1,1c1.48069,1.60583 2.48344,3.48344 4,5c0.21556,0.21556 0.61048,0.56529 0.99826,0.93068c0.64356,-0.64356 1.28711,-1.28712 1.93067,-1.93068c0.15036,-0.15036 0.33698,-0.45914 0.51078,-0.71194c-0.04169,-0.75532 -0.10899,-1.51294 0.02476,-2.25252c0.08539,-0.47221 -0.33699,-0.94821 -0.24341,-1.41886c0.05468,-0.27501 0.84022,0.70158 0.70788,0.4544c-0.10912,-0.2038 -0.45875,-0.41088 -0.73427,-0.58731c-1.2925,-0.10314 -2.58644,-0.29651 -3.81134,-0.70481c0.24423,-0.73267 0.13761,-0.15624 -1.41886,-0.24341c-1.02899,-0.05763 -2.06431,-0.08865 -3.08114,-0.25659c-1.2729,-0.21022 -4.55097,-1.96263 -4.9544,-2.20788c-0.80562,-0.48975 -1.33334,-1.33334 -2,-2c-0.13207,-0.13207 -0.38632,-0.29209 -0.61754,-0.44684c-0.94182,0.2084 -2.07138,0.66188 -2.32686,-0.02571c-2.85572,2.09933 -5.73903,4.55529 -7.04793,7.17309c-0.92142,-0.46071 -0.47214,3.38619 -0.47214,4.26393c0,1 0.56848,2.1773 0,3c-0.17164,0.24839 -0.63352,-1.01891 -0.52786,-0.73607c0.26082,0.69823 0.71999,1.30924 1,2c0.56391,1.39112 1.14151,2.78559 1.52786,4.23607c0.12388,0.46508 0.45658,1.30404 0.0507,1.48228c0.04083,0.07922 0.0777,0.16045 0.10954,0.24422c0.04773,0.12556 -0.48173,0.01827 -0.38675,0.11325c3.31641,3.31641 8.00982,4.48422 12.30764,5.91683c1.63772,0.54591 4.6929,2.0879 5.91886,2.24341c2.72753,0.346 5.74089,0 8.5,0c1.83334,0 3.66666,0 5.5,0c0.33198,0 0.96007,-0.20701 1.29446,-0.2087c0.68254,-0.54823 1.37786,-1.08088 2.1244,-1.53472c2.8442,-1.72902 6.3463,-0.85176 9.36846,-1.6073c-0.31586,0.52573 -1.2921,1.06981 -0.94757,1.57721c0.33757,0.49715 0.66666,-1 1,-1.5c0.66666,-1 0.82041,-2.76972 2,-3c0.41992,-0.08197 0.06809,1.6913 0.16025,1.2735c0.36111,-1.63707 0,-3.80878 0,-5.5c0,-3.24706 -0.47231,-3.95604 -1,-7.5c-0.48833,-3.27956 -0.30355,-7.92595 0.14928,-11.21268c0.14054,-1.02007 0.39216,-1.68558 0.58542,-2.38967c-0.17111,-0.07539 -0.34068,-0.15417 -0.5082,-0.2374c-2.2186,-1.10241 -4.03343,-2.89611 -5.76203,-4.62471c-0.33334,-0.33334 -0.9729,-0.52937 -1,-1c-0.01871,-0.32505 1.24143,0.36156 0.9544,0.20788c-2.64852,-1.41801 -6.14383,-2.04794 -9,-3c-1.04388,-0.34796 -3.82883,-1.68404 -4.41886,-1.74341c-2.11607,-0.21294 -4.36875,0 -6.5,0c-3.56576,0 -9.03238,-0.75179 -11.91886,-0.25659c-3.60957,0.61925 -6.92431,2.65265 -10.58114,3.25659c-1.87607,0.30983 -4.09496,0 -6,0c0,0 -5,0 -5,-5c0,-5 5,-5 5,-5c1.89803,0 4.13308,0.32029 6,0c1.96167,-0.33654 4.9721,-2.33933 7.41886,-2.74341c4.85358,-0.80158 10.17076,-0.25659 15.08114,-0.25659c2.1036,0 4.42344,-0.2815 6.5,0c3.56282,0.48298 7.17837,2.12233 10.58114,3.25659c1.82821,0.60941 4.35934,1.00262 6,2c2.46773,1.50017 3.79351,3.49793 5.9544,5.20788c0.70599,0.55866 3.63208,1.22521 4.0456,1.79212c1.39828,1.91694 2.27924,4.16227 3.41886,6.24341c0,2.3433 -0.79997,4.43448 -1.14928,6.71268c-0.36181,2.35971 -0.15546,6.385 0.14928,8.78732c0.06719,0.5297 0.65641,0.89205 0.74341,1.41886c0.96526,5.84473 0.71653,12.4051 -2.58317,17.35464c-0.66666,1 -1.00871,2.32045 -2,3c-1.53374,1.05141 -3.29838,1.71814 -4.94757,2.57721c-2.43977,0.60994 -4.76988,0.3394 -7.21268,0.64928c-0.5297,0.06719 -0.94814,0.49139 -1.41886,0.74341c-0.28704,0.15368 0.97311,-0.53293 0.9544,-0.20788c-0.12491,2.1695 -3.91502,1.98931 -6.03554,2.46446c-2.10613,0.47194 -4.83278,0 -7,0c-2.73249,0 -5.81042,0.40048 -8.5,0c-3.07869,-0.45842 -6.13594,-1.77485 -9.08114,-2.75659c-5.00842,-1.66948 -10.83566,-3.22646 -14.69236,-7.08317c-1.30626,-1.30626 -2.82588,-2.62662 -3.38675,-4.38675c-0.59045,-1.85295 -0.15923,-3.95171 -0.83975,-5.7735c-0.06157,-0.16483 -0.35939,0.37116 -0.47214,0.23607c-0.47759,-0.57225 -0.80815,-1.27975 -1,-2c-1.33539,-5.01343 -0.70106,-10.75588 1,-15.47214c3.15379,-6.30758 10.25836,-12.76393 17.47214,-12.76393c1,0 2.07421,-0.37803 3,0c1.59294,0.65044 3.07702,1.55164 4.53554,2.46446c1.14849,0.7188 1.80795,2.36178 3,3c0.24719,0.13234 -0.72941,-0.6532 -0.4544,-0.70788c0.51693,-0.10278 0.98055,0.41089 1.5,0.5c1.4875,0.25519 3.03431,0.1401 4.5,0.5c2.51996,0.83999 6.38553,0.30464 8.4544,3.70788c1.974,3.24718 2.46446,5.81249 2.46446,9.53554c0,1 0.37803,2.07421 0,3c-1.62511,3.97994 -8.36298,13.30174 -14,11c-3.37473,-1.37799 -4.3749,-2.30382 -6.53554,-4.46446c-1.42828,-1.42828 -2.35317,-3.95575 -4,-5l-1,-1c0,0 3.07372,-0.88339 5.31913,-1.18522z" fill="#000000" stroke="none" stroke-width="0.5" stroke-linecap="butt"/><path d="M269.00001,211.8125l73,6l-9,32l-46,27l-159,-7l-40,-48l75,-4z" data-paper-data="{&quot;origPos&quot;:null}" fill="#ffbb70" stroke="#ffbb70" stroke-width="5" stroke-linecap="round"/><path d="M266.674,232.81618c0,0 49.36376,-7.37428 53.80249,-2.72418c4.43873,4.6501 -15.66402,17.70715 -15.66402,17.70715c0,0 -10.32838,5.15228 -11.70824,5.39869c-4.13956,0.73921 -12.12831,-2.67451 -12.12831,-2.67451c0,0 -15.75183,-14.83886 -14.96984,-17.85509c0.26066,-1.00541 0.66791,0.14794 0.66791,0.14794z" data-paper-data="{&quot;origPos&quot;:null}" fill="#ff0000" stroke="#000000" stroke-width="5" stroke-linecap="round"/></g></g></svg>