<svg version="1.1" xmlns="http://www.w3.org/2000/svg" xmlns:xlink="http://www.w3.org/1999/xlink" width="158.10458" height="192.45739" viewBox="0,0,158.10458,192.45739"><g transform="translate(-161.99192,-48.36456)"><g data-paper-data="{&quot;isPaintingLayer&quot;:true}" fill-rule="nonzero" stroke-linejoin="miter" stroke-miterlimit="10" stroke-dasharray="" stroke-dashoffset="0" style="mix-blend-mode: normal"><path d="M163,159.71677c15.63405,-76.82269 113.87297,-21.26611 115,-1c2.05145,36.88896 1,52 1,52l38,29l-148,-5z" data-paper-data="{&quot;origPos&quot;:null}" fill="#0064ff" stroke="#000000" stroke-width="2" stroke-linecap="round"/><path d="M197,156.8125c0,-2.76143 2.23857,-5 5,-5c2.76143,0 5,2.23857 5,5c0,2.76143 -2.23857,5 -5,5c-2.76143,0 -5,-2.23857 -5,-5z" data-paper-data="{&quot;origPos&quot;:null}" fill="#000000" stroke="none" stroke-width="0.5" stroke-linecap="butt"/><path d="M168,235.8125v-37h69v37z" data-paper-data="{&quot;origPos&quot;:null}" fill="#ffffff" stroke="#000000" stroke-width="2" stroke-linecap="butt"/><path d="M233,217.8125l-66,2" data-paper-data="{&quot;origPos&quot;:null}" fill="none" stroke="#000000" stroke-width="2" stroke-linecap="round"/><path d="M199,202.8125l1,31" fill="none" stroke="#000000" stroke-width="2" stroke-linecap="round"/><path d="M179,201.8125l1,37" fill="none" stroke="#000000" stroke-width="2" stroke-linecap="round"/><path d="M219,201.8125l-1,29" fill="none" stroke="#000000" stroke-width="2" stroke-linecap="round"/><path d="M185,66.8125c0,0 -4.04358,8.67236 -9,8c-10.88382,-1.47644 -9,-9 -9,-9l5.99854,-11.99709c0.24348,-0.32391 0.46775,-0.66309 0.67111,-1.01585c0.21161,0.01294 0.33035,0.01294 0.33035,0.01294c4.38408,0 8.27867,-1.53019 12.16526,-3.41168l53.83474,8.41168c0,0 13.61006,0.84786 20.51878,4.1876c0.84001,2.49953 2.64075,4.55784 4.96334,5.73606c-0.31302,0.96916 -0.48212,2.003 -0.48212,3.07634c0,2.02459 0.60166,3.90865 1.63592,5.48314c-0.41108,1.09402 -0.63592,2.27918 -0.63592,3.51686c0,2.39176 0.83967,4.5874 2.24031,6.30822c-1.74066,2.9892 -4.35564,3.46961 -10.24031,1.69178c-6.12727,-1.85112 -10,-13 -10,-13l-20,-3l-4,48l-23,-2l-2,-48z" data-paper-data="{&quot;origPos&quot;:null}" fill="#00f0ff" stroke="#00f0ff" stroke-width="2" stroke-linecap="round"/></g></g></svg>