<svg version="1.1" xmlns="http://www.w3.org/2000/svg" xmlns:xlink="http://www.w3.org/1999/xlink" width="158.10458" height="121.53871" viewBox="0,0,158.10458,121.53871"><g transform="translate(-161.99193,-119.28324)"><g data-paper-data="{&quot;isPaintingLayer&quot;:true}" fill-rule="nonzero" stroke-linejoin="miter" stroke-miterlimit="10" stroke-dasharray="" stroke-dashoffset="0" style="mix-blend-mode: normal"><path d="M163,159.71677c15.63405,-76.82269 113.87297,-21.26611 115,-1c2.05145,36.88896 1,52 1,52l38,29l-148,-5z" data-paper-data="{&quot;origPos&quot;:null}" fill="#0064ff" stroke="#000000" stroke-width="2" stroke-linecap="round"/><path d="M197,156.8125c0,-2.76143 2.23857,-5 5,-5c2.76143,0 5,2.23857 5,5c0,2.76143 -2.23857,5 -5,5c-2.76143,0 -5,-2.23857 -5,-5z" data-paper-data="{&quot;origPos&quot;:null}" fill="#000000" stroke="none" stroke-width="0.5" stroke-linecap="butt"/><path d="M168,235.8125v-37h69v37z" data-paper-data="{&quot;origPos&quot;:null}" fill="#ffffff" stroke="#000000" stroke-width="2" stroke-linecap="butt"/><path d="M233,217.8125l-66,2" data-paper-data="{&quot;origPos&quot;:null}" fill="none" stroke="#000000" stroke-width="2" stroke-linecap="round"/><path d="M199,202.8125l1,31" fill="none" stroke="#000000" stroke-width="2" stroke-linecap="round"/><path d="M179,201.8125l1,37" fill="none" stroke="#000000" stroke-width="2" stroke-linecap="round"/><path d="M219,201.8125l-1,29" fill="none" stroke="#000000" stroke-width="2" stroke-linecap="round"/></g></g></svg>