<svg version="1.1" xmlns="http://www.w3.org/2000/svg" xmlns:xlink="http://www.w3.org/1999/xlink" width="243" height="243" viewBox="0,0,243,243"><g transform="translate(-119,-62.63328)"><g data-paper-data="{&quot;isPaintingLayer&quot;:true}" fill-rule="nonzero" stroke-linejoin="miter" stroke-miterlimit="10" stroke-dasharray="" stroke-dashoffset="0" style="mix-blend-mode: normal"><path d="M119,305.63328v-243h243v243z" fill="#ffffff" stroke="none" stroke-width="0" stroke-linecap="butt"/><path d="M162.5,193.99769c0,-45.56349 36.93651,-82.5 82.5,-82.5c45.56349,0 82.5,36.93651 82.5,82.5c0,45.56349 -36.93651,82.5 -82.5,82.5c-45.56349,0 -82.5,-36.93651 -82.5,-82.5z" data-paper-data="{&quot;origPos&quot;:null}" fill="#ffffff" stroke="#000000" stroke-width="10" stroke-linecap="butt"/><path d="M211,120.81019l-29,17l-2,-47z" data-paper-data="{&quot;origPos&quot;:null}" fill="none" stroke="#000000" stroke-width="10" stroke-linecap="round"/><path d="M281,120.81019l33,-27l-6,40z" data-paper-data="{&quot;origPos&quot;:null}" fill="#000000" stroke="#000000" stroke-width="10" stroke-linecap="round"/><path d="M214,152.81018c0,-2.76143 2.23857,-5 5,-5c2.76143,0 5,2.23857 5,5c0,2.76143 -2.23857,5 -5,5c-2.76143,0 -5,-2.23857 -5,-5z" data-paper-data="{&quot;origPos&quot;:null}" fill="#000000" stroke="none" stroke-width="0.5" stroke-linecap="butt"/><path d="M274,148.81018c0,-2.76143 2.23858,-5 5,-5c2.76142,0 5,2.23857 5,5c0,2.76143 -2.23858,5 -5,5c-2.76142,0 -5,-2.23857 -5,-5z" data-paper-data="{&quot;origPos&quot;:null}" fill="#000000" stroke="none" stroke-width="0.5" stroke-linecap="butt"/><path d="M255.93316,187.13055c0,4.19726 0.06801,7.50682 -3.07295,10.8541c-4.10829,4.37814 -12.00312,2.46473 -15.3287,-1.70245c-3.2663,-4.09289 -3.13487,-8.6725 -3.1025,-13.58561c-0.90352,-0.60166 -1.73259,-1.30993 -2.46146,-2.13668c-1.42932,-1.62126 -2.45414,-3.67742 -3.27672,-5.76525l-0.06524,0.02175l-0.66753,-2.00258l-1.8951,-1.2634l1.59866,-2.39799c0.29201,-0.78946 0.92193,-1.56591 2.19035,-2.02875c0.0945,-0.03589 0.19083,-0.06807 0.2888,-0.09636c2.04673,-0.62026 3.28489,0.34903 3.95294,1.23848c0.29934,0.36799 0.5303,0.79384 0.6735,1.25819c0.85549,2.55301 1.91067,5.04595 3.63154,7.1772c0.10906,0.13506 1.99397,0.67205 2.69391,0.79133c2.83734,0.48352 6.60338,0.95299 9.657,0.0281l0.90316,-1.60238c0,0 0.87707,-0.1253 1.83948,0.17223c0.21394,-0.17834 0.4179,-0.37139 0.61073,-0.58011c0.24193,-0.26189 -0.83167,0.7597 -0.97744,0.43434c-0.63217,-1.41103 1.46034,-2.74246 2.40591,-3.9658c0.33334,-0.33334 0.66666,-0.66666 1,-1l3.90966,-2.08946c0,0 3.74112,0.25801 3.48311,3.99912c-0.18504,2.68297 -2.16149,3.30913 -3.26473,3.4487l1.17526,-0.05506c-0.33333,0.33334 -0.66667,0.66666 -1,1c-0.14343,-0.71007 -2.53631,4.42363 -2.57153,4.46854c-0.56656,0.72246 -1.38634,1.31215 -2.33013,1.79227c0,1.19585 0,2.39169 0,3.58755zM242.8212,191.72104c0.09353,0.22906 -0.22617,-0.80314 0.01362,-0.74214c0.84223,0.21426 2.52451,2.16768 3.42847,2.53146c0.26479,0.10656 -0.81564,-0.46856 -0.58013,-0.62981c0.41257,-0.28247 1.02538,0.15728 1.5,0c0.5384,-0.17842 0.97033,-0.56315 1.41019,-0.93794c-0.19504,0.07504 -0.36945,0.09494 -0.46775,0.00208c-0.38314,-0.36192 0.4119,-0.98037 0.5,-1.5c0.10462,-0.61712 -0.19244,-2.55488 -0.19244,-3.31414c0,-0.55544 0,-1.11089 0,-1.66633c-2.10355,0.20731 -4.35769,0.20054 -6.56222,-0.11273c-0.01253,2.17476 0.12116,4.33908 0.95025,6.36955z" data-paper-data="{&quot;origPos&quot;:null}" fill="#000000" stroke="none" stroke-width="0.5" stroke-linecap="butt"/><path d="M241.83903,185.313c2.20453,0.31327 4.52179,0.31947 6.62535,0.11216c0,0.55544 0.00923,1.12056 0.00923,1.676c0,0.75927 0.30452,2.74075 0.19989,3.35787c-0.0881,0.51963 -0.8934,1.15667 -0.51027,1.51859c0.0983,0.09286 0.27505,0.07008 0.47009,-0.00496c-0.43986,0.37479 -0.88738,0.77313 -1.42578,0.95155c-0.47462,0.15728 -1.10571,-0.27649 -1.51827,0.00598c-0.23551,0.16125 0.85077,0.73529 0.58598,0.62873c-0.90396,-0.36379 -2.64041,-2.33892 -3.48264,-2.55317c-0.23979,-0.061 0.08562,0.97856 -0.00791,0.74949c-0.82909,-2.03047 -0.95821,-4.26747 -0.94568,-6.44223z" data-paper-data="{&quot;noHover&quot;:false,&quot;origItem&quot;:[&quot;Path&quot;,{&quot;applyMatrix&quot;:true,&quot;segments&quot;:[[[455.27607,387.80598],[-1.65819,-4.06094],[0.18706,0.45812]],[[455.3033,386.3217],[-0.47957,-0.122],[1.68445,0.42851]],[[462.16025,391.38462],[-1.80793,-0.72757],[0.52958,0.21312]],[[461,390.125],[-0.47103,0.3225],[0.82513,-0.56494]],[[464,390.125],[-0.94924,0.31456],[1.07679,-0.35683]],[[466.82038,388.24913],[-0.87973,0.74958],[-0.39008,0.15008]],[[465.88488,388.25329],[0.1966,0.18572],[-0.76627,-0.72384]],[[466.88488,385.25329],[-0.17619,1.03926],[0.20925,-1.23425]],[[466.5,378.625],[0,1.51854],[0,-1.11089]],[[466.5,375.29234],[0,1.11089],[-4.2071,0.41463]],[[453.37556,375.06688],[4.40907,0.62653],[-0.02505,4.34952]]],&quot;closed&quot;:true}],&quot;origPos&quot;:null}" fill="#ff0000" stroke="none" stroke-width="0.5" stroke-linecap="butt"/><path d="M231,120.81019l-62,58l9,-32l39,-31z" data-paper-data="{&quot;origPos&quot;:null}" fill="#000000" stroke="#000000" stroke-width="10" stroke-linecap="round"/><path d="M173,198.46644l-48,1" fill="none" stroke="#000000" stroke-width="5" stroke-linecap="round"/><path d="M180,216.46644l-42,8" fill="none" stroke="#000000" stroke-width="5" stroke-linecap="round"/><path d="M312,181.46644l43,8" fill="none" stroke="#000000" stroke-width="5" stroke-linecap="round"/><path d="M312,201.46644l30,11" fill="none" stroke="#000000" stroke-width="5" stroke-linecap="round"/></g></g></svg>