<svg version="1.1" xmlns="http://www.w3.org/2000/svg" xmlns:xlink="http://www.w3.org/1999/xlink" width="106" height="106"><g transform="translate(-187,-127)"><g data-paper-data="{&quot;isPaintingLayer&quot;:true}" fill="none" fill-rule="nonzero" stroke="none" stroke-width="none" stroke-linecap="butt" stroke-linejoin="miter" stroke-miterlimit="10" stroke-dasharray="" stroke-dashoffset="0" font-family="none" font-weight="none" font-size="none" text-anchor="none" style="mix-blend-mode: normal"><path d="M192,180c0,-26.50967 21.49033,-48 48,-48c26.50967,0 48,21.49033 48,48c0,26.50967 -21.49033,48 -48,48c-26.50967,0 -48,-21.49033 -48,-48z" data-paper-data="{&quot;origPos&quot;:null}" fill="#ffffff" stroke="#000000" stroke-width="10"/><path d="M220,163.8125c0,-2.76143 2.23857,-5 5,-5c2.76143,0 5,2.23857 5,5c0,2.76143 -2.23857,5 -5,5c-2.76143,0 -5,-2.23857 -5,-5z" fill="#000000" stroke="none" stroke-width="0.5"/><path d="M257,165.8125c0,-2.76143 2.23858,-5 5,-5c2.76142,0 5,2.23857 5,5c0,2.76143 -2.23858,5 -5,5c-2.76142,0 -5,-2.23857 -5,-5z" fill="#000000" stroke="none" stroke-width="0.5"/><path d="M260.48352,188.09906c-0.28656,2.48352 -2.77008,2.19696 -2.77008,2.19696l-0.92287,0.88819c-8.38417,2.79472 -20.12909,1.8253 -26.55833,-4.60395c0,0 -1.76776,-1.76776 0,-3.53553c1.76776,-1.76776 3.53553,0 3.53553,0c5.12618,5.12618 14.74384,5.62866 21.44167,3.39605l3.07713,-1.11181c0,0 2.48352,0.28656 2.19696,2.77008z" fill="#000000" stroke="none" stroke-width="0.5"/></g></g></svg>