<svg version="1.1" xmlns="http://www.w3.org/2000/svg" xmlns:xlink="http://www.w3.org/1999/xlink" width="223.86072" height="89.74994" viewBox="0,0,223.86072,89.74994"><g transform="translate(-129.43856,-134.42322)"><g data-paper-data="{&quot;isPaintingLayer&quot;:true}" fill-rule="nonzero" stroke-linejoin="miter" stroke-miterlimit="10" stroke-dasharray="" stroke-dashoffset="0" style="mix-blend-mode: normal"><path d="M183.08728,223.23943l167,-2l-40,-27l-4,-32l-18,-1l-10,-24c0,0 0.92503,-2.16652 -0.61825,1.27415c-1.45466,3.2431 -12.38175,14.72585 -12.38175,14.72585l-10,-17l-11,15l-17,-14l-12,14l-11,-11l-12,12l-12,-12l-7,7c0,0 -12.78373,-6.46794 -27,5c-8.34075,6.7283 -14.71103,18.0042 -15.40622,20.15929c-0.71946,2.2303 -1.14414,16.54237 -0.30828,18.73171c2.5076,6.56801 4.6888,22.45669 24.7145,26.109c1.64166,0.29941 -3.43143,1.45849 -1.7704,1.61865c1.50592,0.1452 6.3577,2.17208 7.87018,2.20825c4.64962,0.11118 -5.73797,-0.18013 -1.08808,-0.27949c3.47715,-0.07431 5.44267,0.00365 8.89066,0.45905c28.27912,3.73496 -14.95371,-3.04865 11.09764,1.99355c6.05817,1.17255 3,0 3,0z" data-paper-data="{&quot;origPos&quot;:null}" fill="#ffffff" stroke="#000000" stroke-width="2" stroke-linecap="round"/><path d="M159.58728,165.23943c0,-1.38071 1.11929,-2.5 2.5,-2.5c1.38071,0 2.5,1.11929 2.5,2.5c0,1.38071 -1.11929,2.5 -2.5,2.5c-1.38071,0 -2.5,-1.11929 -2.5,-2.5z" data-paper-data="{&quot;origPos&quot;:null}" fill="#000000" stroke="none" stroke-width="0.5" stroke-linecap="butt"/><path d="M143.08728,193.23943l29,1" data-paper-data="{&quot;origPos&quot;:null}" fill="none" stroke="#000000" stroke-width="2" stroke-linecap="round"/></g></g></svg>