<svg version="1.1" xmlns="http://www.w3.org/2000/svg" xmlns:xlink="http://www.w3.org/1999/xlink" width="76.48024" height="62.84649" viewBox="0,0,76.48024,62.84649"><g transform="translate(-45.67364,-114.21601)"><g data-paper-data="{&quot;isPaintingLayer&quot;:true}" fill-rule="nonzero" stroke-linejoin="miter" stroke-miterlimit="10" stroke-dasharray="" stroke-dashoffset="0" style="mix-blend-mode: normal"><path d="M47.00003,145.81252l2,-21l9,-6.70588l4.97059,-2.29412l3.82353,6.11764l4.97058,-4.97059l3.05882,6.88235l4.58823,-4.97059l4.58823,6.88235l4.58823,-4.97059l4.58823,9.17647l5.35294,14.52941l18.35295,10.32353l-57.7353,-3.05883z" data-paper-data="{&quot;origPos&quot;:null}" fill="#ffffff" stroke="#000000" stroke-width="2.5" stroke-linecap="round"/><path d="M56.5,128.8125c0,-1.38071 1.11929,-2.5 2.5,-2.5c1.38071,0 2.5,1.11929 2.5,2.5c0,1.38071 -1.11929,2.5 -2.5,2.5c-1.38071,0 -2.5,-1.11929 -2.5,-2.5z" fill="#000000" stroke="none" stroke-width="0.5" stroke-linecap="butt"/><path d="M52,138.8125l13,2" fill="none" stroke="#000000" stroke-width="2.5" stroke-linecap="round"/><path d="M61,152.8125v12l-11,4" fill="none" stroke="#000000" stroke-width="2.5" stroke-linecap="round"/><path d="M91,153.8125l-2,12l8,3" fill="none" stroke="#000000" stroke-width="2.5" stroke-linecap="round"/><path d="M78,167.8125l10,-2l1,7" fill="none" stroke="#000000" stroke-width="2.5" stroke-linecap="round"/><path d="M67,169.8125l-6,-4l1,10" fill="none" stroke="#000000" stroke-width="2.5" stroke-linecap="round"/></g></g></svg>