<svg version="1.1" xmlns="http://www.w3.org/2000/svg" xmlns:xlink="http://www.w3.org/1999/xlink" width="160.47644" height="121.28361" viewBox="0,0,160.47644,121.28361"><g transform="translate(-159.76178,-119.0451)"><g data-paper-data="{&quot;isPaintingLayer&quot;:true}" fill-rule="nonzero" stroke-linejoin="miter" stroke-miterlimit="10" stroke-dasharray="" stroke-dashoffset="0" style="mix-blend-mode: normal"><path d="M282.41614,136.0528l3.66227,60.06117l-77.64005,2.92981l-3.66227,-62.99099z" fill="#ffffff" stroke="#000000" stroke-width="2" stroke-linecap="round"/><path d="M204.77609,136.0528l-0.73245,-10.9868l15.38152,10.25435l4.39472,-14.64907l20.50869,14.64907l11.71925,-13.18416l7.32453,11.71925l18.31133,-9.52189v11.71925z" fill="#ffffff" stroke="#000000" stroke-width="2" stroke-linecap="round"/><path d="M218.32648,149.96941c0,-1.01131 0.81983,-1.83113 1.83113,-1.83113c1.01131,0 1.83113,0.81983 1.83113,1.83113c0,1.01131 -0.81983,1.83113 -1.83113,1.83113c-1.01131,0 -1.83113,-0.81983 -1.83113,-1.83113z" fill="#000000" stroke="none" stroke-width="0.5" stroke-linecap="butt"/><path d="M227.48214,166.08339h-21.24115" fill="none" stroke="#000000" stroke-width="2" stroke-linecap="round"/><path d="M299.26257,135.32035l4.39472,12.45171l-19.77624,6.59208" fill="none" stroke="#000000" stroke-width="2" stroke-linecap="round"/><path d="M319.23822,148.97044l-14.64907,-1.46491l13.18416,-7.32453" fill="none" stroke="#000000" stroke-width="2" stroke-linecap="round"/><path d="M205.50854,174.87283l-32.9604,-12.45171l5.85963,-11.71925" fill="none" stroke="#000000" stroke-width="2" stroke-linecap="round"/><path d="M160.76178,158.0264l10.9868,3.39575l-8.78944,7.59105" fill="none" stroke="#000000" stroke-width="2" stroke-linecap="round"/><path d="M222.35497,198.31133l2.19736,28.56568l-15.38152,7.32453" fill="none" stroke="#000000" stroke-width="2" stroke-linecap="round"/><path d="M223.08742,239.32872l1.46491,-14.64907l10.25435,11.71925" fill="none" stroke="#000000" stroke-width="2" stroke-linecap="round"/><path d="M267.76707,197.57888l0.73245,24.17096l-10.25435,11.71925" fill="none" stroke="#000000" stroke-width="2" stroke-linecap="round"/><path d="M269.23198,236.39891l0.73245,-16.84643l10.9868,15.38152" fill="none" stroke="#000000" stroke-width="2" stroke-linecap="round"/></g></g></svg>