<svg version="1.1" xmlns="http://www.w3.org/2000/svg" xmlns:xlink="http://www.w3.org/1999/xlink" width="143.36169" height="295.08465" viewBox="0,0,143.36169,295.08465"><g transform="translate(-188.30706,-13.8125)"><g data-paper-data="{&quot;isPaintingLayer&quot;:true}" fill-rule="nonzero" stroke="#000000" stroke-width="2" stroke-linejoin="miter" stroke-miterlimit="10" stroke-dasharray="" stroke-dashoffset="0" style="mix-blend-mode: normal"><path d="M212.57813,186.8125v-93h102v93z" fill="#cccccc" stroke-linecap="butt"/><path d="M229.57813,93.8125c0,0 8.75937,-14.91486 20.09091,-19.50309c11.33155,-4.58823 20.17656,-5.25929 30.90909,-1.14724c10.73253,4.11205 17,19.50309 17,19.50309z" data-paper-data="{&quot;origPos&quot;:null}" fill="#ff0000" stroke-linecap="round"/><path d="M229.57813,125.8125v-10h10v10z" fill="#000000" stroke-linecap="butt"/><path d="M285.57813,125.8125v-10h10v10z" data-paper-data="{&quot;origPos&quot;:null}" fill="#000000" stroke-linecap="butt"/><path d="M251.57813,160.8125v-14h18.30769v14z" data-paper-data="{&quot;origPos&quot;:null}" fill="#ffffff" stroke-linecap="butt"/><path d="M265.57813,70.8125l-1,-33" fill="none" stroke-linecap="round"/><path d="M276.57813,26.3125c0,6.35128 -5.14873,11.5 -11.5,11.5c-6.35127,0 -11.5,-5.14872 -11.5,-11.5c0,-6.35128 5.14873,-11.5 11.5,-11.5c6.35127,0 11.5,5.14872 11.5,11.5z" data-paper-data="{&quot;origPos&quot;:null}" fill="#ffec00" stroke-linecap="butt"/><path d="M231.57813,263.8125v-76h61v76z" data-paper-data="{&quot;origPos&quot;:null}" fill="#cccccc" stroke-linecap="butt"/><path d="M230.57813,214.47917l-36,-18.66666l-5,11.66666l41,23.33334z" data-paper-data="{&quot;origPos&quot;:null}" fill="#cccccc" stroke-linecap="round"/><path d="M292.57813,214.47917l26,-21.66666l9,-10l3,16.66666l-36,28.33334z" data-paper-data="{&quot;origPos&quot;:null}" fill="#cccccc" stroke-linecap="round"/><path d="M242.70313,263.8125v43h13.75v-41.80556z" data-paper-data="{&quot;origPos&quot;:null}" fill="#cccccc" stroke-linecap="round"/><path d="M270.03967,266.07721l-2.46154,40.47059l16,1.26471l-1.23077,-43z" data-paper-data="{&quot;origPos&quot;:null}" fill="#cccccc" stroke-linecap="round"/><path d="M248.05432,196.8125l-2.47619,39.61905l26,2.47619v-38.38095z" data-paper-data="{&quot;origPos&quot;:null}" fill="none" stroke-linecap="round"/><path d="M255.32813,209.9375l8.75,2.5v10l-10,1.25z" data-paper-data="{&quot;origPos&quot;:null}" fill="none" stroke-linecap="round"/></g></g></svg>