<svg version="1.1" xmlns="http://www.w3.org/2000/svg" xmlns:xlink="http://www.w3.org/1999/xlink" width="233.50889" height="101.43768" viewBox="0,0,233.50889,101.43768"><g transform="translate(-122.76992,-129.60481)"><g data-paper-data="{&quot;isPaintingLayer&quot;:true}" fill="none" fill-rule="nonzero" stroke="none" stroke-width="none" stroke-linecap="none" stroke-linejoin="miter" stroke-miterlimit="10" stroke-dasharray="" stroke-dashoffset="0" font-family="none" font-weight="none" font-size="none" text-anchor="none" style="mix-blend-mode: normal"><path d="M133,146.5l8,-12l7,11l11,-13l6,12l11,-13l5,12l14,-10l9,11l11,-11l3,11l108,1l-2,48h-199l1,-18l31,1l-2,-22l-29,2l-2,-12z" data-paper-data="{&quot;origPos&quot;:null}" fill="#559900" stroke="#000000" stroke-width="2" stroke-linecap="round"/><path d="M324,159.5l32,-4l-31,9z" data-paper-data="{&quot;origPos&quot;:null}" fill="#559900" stroke="#000000" stroke-width="2" stroke-linecap="round"/><path d="M138.2,175.3l9,-13l1,12z" data-paper-data="{&quot;origPos&quot;:null}" fill="#ffffff" stroke="#000000" stroke-width="2" stroke-linecap="round"/><path d="M162.5,150.5c0,-1.38071 1.11929,-2.5 2.5,-2.5c1.38071,0 2.5,1.11929 2.5,2.5c0,1.38071 -1.11929,2.5 -2.5,2.5c-1.38071,0 -2.5,-1.11929 -2.5,-2.5z" data-paper-data="{&quot;origPos&quot;:null}" fill="#000000" stroke="none" stroke-width="0.5" stroke-linecap="butt"/><path d="M183,213.5l3,15l-11,-9l-7,9l-2,-7l-14,6l10,-9l4,-23l34,1z" data-paper-data="{&quot;origPos&quot;:null}" fill="#559900" stroke="#000000" stroke-width="2" stroke-linecap="round"/><path d="M242.33334,221.16667l-12.66667,-26.66666l46,-1l-3,18l7,8l-12,-1l-5,8l-11,-7l-10,8l1,-5.66666" data-paper-data="{&quot;origPos&quot;:null}" fill="#559900" stroke="#000000" stroke-width="2" stroke-linecap="round"/><path d="M127.3,156.40946l9.6,-0.25946l-3.89189,8.82162z" data-paper-data="{&quot;origPos&quot;:null}" fill="#ffffff" stroke="#000000" stroke-width="2" stroke-linecap="round"/></g></g></svg>